<svg width="2000" height="2000" viewBox="0 0 2000 2000" fill="none" xmlns="http://www.w3.org/2000/svg">
<rect width="2000" height="2000" fill="black"/>
<path d="M468 1092V1078.25C472.667 1078.08 476.25 1077.33 478.75 1076C481.25 1074.5 483 1072 484 1068.5C485 1064.83 485.5 1059.83 485.5 1053.5V953.75C485.5 949.583 485.583 945.583 485.75 941.75C486.083 937.917 486.333 934.917 486.5 932.75C483.667 932.917 480.417 933.083 476.75 933.25C473.083 933.25 470.167 933.333 468 933.5V917H534.5V930.75C530 930.917 526.417 931.75 523.75 933.25C521.25 934.583 519.5 937 518.5 940.5C517.5 944 517 949 517 955.5V1055C517 1059.5 516.917 1063.67 516.75 1067.5C516.583 1071.17 516.333 1074.08 516 1076.25L554 1076C564 1075.83 571.75 1072.42 577.25 1065.75C582.75 1059.08 585.5 1048.75 585.5 1034.75H599.5L598 1092H468ZM614.182 1078.75C619.015 1078.75 622.432 1077.75 624.432 1075.75C626.432 1073.58 627.682 1070.58 628.182 1066.75C628.682 1062.92 628.932 1058.58 628.932 1053.75V1007C628.932 1004.17 629.015 1001.08 629.182 997.75C629.348 994.25 629.598 990.667 629.932 987C627.098 987.167 624.015 987.333 620.682 987.5C617.348 987.667 614.598 987.833 612.432 988V971.75C619.932 971.75 626.098 971.417 630.932 970.75C635.932 969.917 639.765 968.917 642.432 967.75C645.265 966.583 647.265 965.5 648.432 964.5H659.682V1056.25C659.682 1058.92 659.598 1062.17 659.432 1066C659.432 1069.67 659.182 1073.25 658.682 1076.75C661.348 1076.42 664.182 1076.25 667.182 1076.25C670.348 1076.08 672.932 1076 674.932 1076V1092H614.182V1078.75ZM642.932 943C638.098 943 634.015 941.25 630.682 937.75C627.348 934.083 625.682 929.667 625.682 924.5C625.682 919.333 627.348 914.917 630.682 911.25C634.182 907.583 638.265 905.75 642.932 905.75C647.765 905.75 651.765 907.583 654.932 911.25C658.265 914.917 659.932 919.333 659.932 924.5C659.932 929.667 658.348 934.083 655.182 937.75C652.015 941.25 647.932 943 642.932 943ZM689.563 1155.75V1142.5C694.396 1142.5 697.813 1141.42 699.813 1139.25C701.979 1137.25 703.313 1134.33 703.813 1130.5C704.313 1126.67 704.563 1122.33 704.563 1117.5L704.813 1006.75C704.813 1003.75 704.813 1000.58 704.813 997.25C704.979 993.917 705.313 990.5 705.813 987C702.979 987.167 699.813 987.333 696.313 987.5C692.979 987.667 690.229 987.833 688.063 988V971.75C695.729 971.75 701.896 971.417 706.563 970.75C711.396 969.917 715.063 968.917 717.563 967.75C720.229 966.583 722.146 965.5 723.313 964.5H734.063C734.396 966.167 734.646 968.167 734.813 970.5C734.979 972.833 735.146 975 735.313 977C740.813 972.167 746.646 968.667 752.813 966.5C758.979 964.167 764.896 963 770.563 963C780.563 963 789.479 965.583 797.313 970.75C805.146 975.75 811.313 983 815.813 992.5C820.313 1001.83 822.563 1012.92 822.563 1025.75C822.563 1039.42 819.813 1051.58 814.313 1062.25C808.979 1072.75 801.646 1081 792.313 1087C782.979 1093 772.229 1096 760.063 1096C755.063 1096 750.563 1095.42 746.563 1094.25C742.563 1093.25 738.813 1091.92 735.313 1090.25V1120C735.313 1122.67 735.229 1125.83 735.063 1129.5C735.063 1133.33 734.813 1137 734.313 1140.5C736.979 1140.17 739.813 1139.92 742.813 1139.75C745.813 1139.75 748.313 1139.75 750.313 1139.75V1155.75H689.563ZM757.313 1080.25C764.979 1080.08 771.146 1077.75 775.813 1073.25C780.646 1068.58 784.146 1062.42 786.313 1054.75C788.479 1047.08 789.563 1038.75 789.563 1029.75C789.563 1021.58 788.479 1013.83 786.313 1006.5C784.313 999.167 781.063 993.25 776.563 988.75C772.063 984.25 766.063 982 758.563 982C753.896 982.167 749.479 983.333 745.313 985.5C741.313 987.667 737.979 990.5 735.313 994C735.313 997.667 735.313 1001.42 735.313 1005.25C735.313 1009.08 735.313 1013.17 735.313 1017.5C735.313 1021.83 735.313 1026.75 735.313 1032.25C735.313 1037.58 735.313 1043.67 735.313 1050.5C735.313 1057.33 735.313 1065.17 735.313 1074C737.979 1075.83 741.229 1077.33 745.063 1078.5C748.896 1079.67 752.979 1080.25 757.313 1080.25ZM897.465 1096C889.798 1096 882.632 1095 875.965 1093C869.298 1091 863.965 1088.58 859.965 1085.75L860.715 1093.75H844.465L843.215 1050.75H856.715C857.215 1056.42 859.215 1061.58 862.715 1066.25C866.215 1070.75 870.715 1074.33 876.215 1077C881.882 1079.5 888.132 1080.75 894.965 1080.75C898.298 1080.75 901.465 1080.25 904.465 1079.25C907.632 1078.25 910.215 1076.67 912.215 1074.5C914.382 1072.17 915.465 1069.25 915.465 1065.75C915.465 1062.08 914.215 1059.08 911.715 1056.75C909.382 1054.42 906.048 1052.25 901.715 1050.25C897.382 1048.25 892.298 1046.17 886.465 1044C881.298 1042 876.132 1039.92 870.965 1037.75C865.798 1035.58 861.048 1033 856.715 1030C852.382 1026.83 848.882 1023 846.215 1018.5C843.548 1014 842.215 1008.5 842.215 1002C842.215 997.5 843.048 993 844.715 988.5C846.382 984 849.048 979.833 852.715 976C856.382 972 861.048 968.833 866.715 966.5C872.548 964.167 879.632 963 887.965 963C892.465 963 897.548 963.75 903.215 965.25C908.882 966.583 913.882 968.917 918.215 972.25L917.965 964.25H934.215V1008.25H920.715C919.882 1002.42 918.048 997.25 915.215 992.75C912.382 988.083 908.632 984.417 903.965 981.75C899.298 979.083 893.715 977.75 887.215 977.75C881.882 977.75 877.382 979.083 873.715 981.75C870.048 984.25 868.215 988 868.215 993C868.215 997.167 869.632 1000.58 872.465 1003.25C875.298 1005.92 879.132 1008.17 883.965 1010C888.798 1011.83 894.048 1013.83 899.715 1016C907.548 1018.67 914.632 1021.83 920.965 1025.5C927.465 1029.17 932.632 1033.58 936.465 1038.75C940.298 1043.92 942.215 1050.33 942.215 1058C942.215 1066.67 940.048 1073.83 935.715 1079.5C931.382 1085 925.798 1089.17 918.965 1092C912.132 1094.67 904.965 1096 897.465 1096ZM959.943 1092V1078.25C964.61 1078.08 968.193 1077.33 970.693 1076C973.193 1074.5 974.943 1072 975.943 1068.5C976.943 1064.83 977.443 1059.83 977.443 1053.5V953.75C977.443 949.583 977.527 945.583 977.693 941.75C978.027 937.917 978.277 934.917 978.443 932.75C975.61 932.917 972.36 933.083 968.693 933.25C965.027 933.25 962.11 933.333 959.943 933.5V917H1026.44V930.75C1021.94 930.917 1018.36 931.75 1015.69 933.25C1013.19 934.583 1011.44 937 1010.44 940.5C1009.44 944 1008.94 949 1008.94 955.5V994.5H1027.19L1050.44 956.25C1052.94 951.75 1055.78 947.167 1058.94 942.5C1062.11 937.833 1065.03 934.5 1067.69 932.5C1065.03 932.667 1062.28 932.833 1059.44 933C1056.61 933 1054.11 933.083 1051.94 933.25V917H1110.69V930.75C1106.03 931.083 1101.36 931.917 1096.69 933.25C1092.03 934.583 1087.36 937.25 1082.69 941.25C1078.03 945.083 1073.19 951 1068.19 959L1043.94 997.75C1047.78 1000.08 1051.03 1002.67 1053.69 1005.5C1056.53 1008.33 1059.11 1011.33 1061.44 1014.5L1087.94 1051.25C1092.28 1057.08 1096.28 1062 1099.94 1066C1103.78 1070 1107.44 1073 1110.94 1075C1114.61 1077 1118.28 1078.08 1121.94 1078.25V1092H1086.19C1084.69 1091.83 1082.44 1090.42 1079.44 1087.75C1076.61 1085.08 1073.53 1081.83 1070.19 1078C1067.03 1074 1064.11 1070.25 1061.44 1066.75L1034.94 1029.25C1032.44 1025.75 1029.78 1022.33 1026.94 1019C1024.11 1015.5 1021.44 1012.83 1018.94 1011L1008.94 1011.25V1054.75C1008.94 1059.25 1008.86 1063.42 1008.69 1067.25C1008.53 1071.08 1008.28 1074.08 1007.94 1076.25C1010.78 1076.08 1014.03 1075.92 1017.69 1075.75C1021.36 1075.58 1024.28 1075.5 1026.44 1075.5V1092H959.943ZM1132.98 1078.75C1137.81 1078.75 1141.23 1077.75 1143.23 1075.75C1145.23 1073.58 1146.48 1070.58 1146.98 1066.75C1147.48 1062.92 1147.73 1058.58 1147.73 1053.75V1007C1147.73 1004.17 1147.81 1001.08 1147.98 997.75C1148.15 994.25 1148.4 990.667 1148.73 987C1145.9 987.167 1142.81 987.333 1139.48 987.5C1136.15 987.667 1133.4 987.833 1131.23 988V971.75C1138.73 971.75 1144.9 971.417 1149.73 970.75C1154.73 969.917 1158.56 968.917 1161.23 967.75C1164.06 966.583 1166.06 965.5 1167.23 964.5H1178.48V1056.25C1178.48 1058.92 1178.4 1062.17 1178.23 1066C1178.23 1069.67 1177.98 1073.25 1177.48 1076.75C1180.15 1076.42 1182.98 1076.25 1185.98 1076.25C1189.15 1076.08 1191.73 1076 1193.73 1076V1092H1132.98V1078.75ZM1161.73 943C1156.9 943 1152.81 941.25 1149.48 937.75C1146.15 934.083 1144.48 929.667 1144.48 924.5C1144.48 919.333 1146.15 914.917 1149.48 911.25C1152.98 907.583 1157.06 905.75 1161.73 905.75C1166.56 905.75 1170.56 907.583 1173.73 911.25C1177.06 914.917 1178.73 919.333 1178.73 924.5C1178.73 929.667 1177.15 934.083 1173.98 937.75C1170.81 941.25 1166.73 943 1161.73 943ZM1210.86 1092V1078.75C1215.69 1078.75 1219.11 1077.75 1221.11 1075.75C1223.11 1073.58 1224.36 1070.58 1224.86 1066.75C1225.36 1062.92 1225.61 1058.58 1225.61 1053.75V1006.75C1225.61 1003.75 1225.69 1000.58 1225.86 997.25C1226.03 993.917 1226.28 990.5 1226.61 987C1223.94 987.167 1220.86 987.333 1217.36 987.5C1214.03 987.667 1211.28 987.833 1209.11 988V971.75C1216.61 971.75 1222.78 971.417 1227.61 970.75C1232.44 969.917 1236.19 968.917 1238.86 967.75C1241.53 966.583 1243.44 965.5 1244.61 964.5H1255.11C1255.44 966.333 1255.61 967.833 1255.61 969C1255.61 970.167 1255.69 971.417 1255.86 972.75C1256.03 973.917 1256.28 975.667 1256.61 978C1259.94 975.167 1263.78 972.667 1268.11 970.5C1272.61 968.167 1277.11 966.333 1281.61 965C1286.11 963.667 1290.28 963 1294.11 963C1309.11 963 1319.86 967.417 1326.36 976.25C1332.86 985.083 1336.11 999.167 1336.11 1018.5V1056.25C1336.11 1058.92 1336.03 1062.17 1335.86 1066C1335.86 1069.67 1335.61 1073.25 1335.11 1076.75C1337.94 1076.42 1340.86 1076.25 1343.86 1076.25C1346.86 1076.08 1349.36 1076 1351.36 1076V1092H1290.61V1078.75C1295.44 1078.75 1298.86 1077.75 1300.86 1075.75C1303.03 1073.58 1304.36 1070.58 1304.86 1066.75C1305.36 1062.92 1305.61 1058.58 1305.61 1053.75L1305.36 1018.25C1305.36 1006.25 1303.53 997.333 1299.86 991.5C1296.36 985.5 1290.53 982.5 1282.36 982.5C1277.53 982.667 1272.78 983.833 1268.11 986C1263.44 988.167 1259.53 990.917 1256.36 994.25C1256.53 996.25 1256.61 998.333 1256.61 1000.5C1256.61 1002.67 1256.61 1004.83 1256.61 1007L1256.36 1056.25C1256.36 1058.92 1256.28 1062.17 1256.11 1066C1256.11 1069.67 1255.86 1073.25 1255.36 1076.75C1258.03 1076.42 1260.86 1076.25 1263.86 1076.25C1267.03 1076.08 1269.61 1076 1271.61 1076V1092H1210.86ZM1366.11 1092V1076.5L1427.61 996.25C1430.44 992.583 1433.11 989.333 1435.61 986.5C1438.11 983.5 1439.86 981.583 1440.86 980.75L1402.61 981.25C1398.11 981.25 1394.44 982.833 1391.61 986C1388.94 989 1386.86 992.917 1385.36 997.75C1383.86 1002.58 1382.61 1008 1381.61 1014H1368.86L1372.11 967H1472.36V980.25L1411.61 1061.5C1409.27 1064.5 1407.02 1067.17 1404.86 1069.5C1402.86 1071.83 1400.52 1074.17 1397.86 1076.5L1437.61 1077.25C1443.44 1077.42 1448.02 1076.08 1451.36 1073.25C1454.86 1070.25 1457.44 1066.17 1459.11 1061C1460.94 1055.83 1462.27 1050.25 1463.11 1044.25H1475.86L1472.36 1092H1366.11ZM1514.78 1096C1509.95 1096 1505.86 1094.25 1502.53 1090.75C1499.36 1087.08 1497.78 1082.75 1497.78 1077.75C1497.78 1072.58 1499.45 1068.25 1502.78 1064.75C1506.28 1061.08 1510.28 1059.25 1514.78 1059.25C1519.61 1059.25 1523.61 1061.08 1526.78 1064.75C1529.95 1068.25 1531.53 1072.58 1531.53 1077.75C1531.53 1082.75 1529.95 1087.08 1526.78 1090.75C1523.61 1094.25 1519.61 1096 1514.78 1096Z" fill="white"/>
</svg>
